<svg width="23" height="22" viewBox="0 0 23 22" fill="none" xmlns="http://www.w3.org/2000/svg">
<path d="M19.5201 2.87C19.1077 2.00824 18.4569 1.28269 17.645 0.779223C16.833 0.275759 15.8938 0.015461 14.9385 0.029138C13.9832 0.042815 13.0519 0.329894 12.2546 0.856397C11.4574 1.3829 10.8277 2.12678 10.4401 3H6.00012C5.20447 3 4.4414 3.31607 3.8788 3.87868C3.31619 4.44129 3.00012 5.20435 3.00012 6V10C3.00012 10.2652 3.10547 10.5196 3.29301 10.7071C3.48055 10.8946 3.7349 11 4.00012 11C4.26533 11 4.51969 10.8946 4.70722 10.7071C4.89476 10.5196 5.00012 10.2652 5.00012 10V6C5.00012 5.73478 5.10547 5.48043 5.29301 5.29289C5.48055 5.10536 5.7349 5 6.00012 5H8.78012C8.28233 5.54764 8.00453 6.25994 8.00012 7C8.00012 7.79565 8.31619 8.55871 8.87879 9.12132C9.4414 9.68393 10.2045 10 11.0001 10H18.3301C19.2009 10.0063 20.0453 9.70189 20.7118 9.14152C21.3783 8.58115 21.8232 7.8015 21.9665 6.94261C22.1099 6.08372 21.9423 5.20187 21.4939 4.45542C21.0455 3.70897 20.3457 3.14684 19.5201 2.87ZM18.3301 8H11.0001C10.7349 8 10.4805 7.89464 10.293 7.7071C10.1055 7.51957 10.0001 7.26521 10.0001 7C10.0001 6.73478 10.1055 6.48043 10.293 6.29289C10.4805 6.10536 10.7349 6 11.0001 6C11.2653 6 11.5197 5.89464 11.7072 5.7071C11.8948 5.51957 12.0001 5.26521 12.0001 5C11.992 4.28635 12.2387 3.59321 12.6957 3.04504C13.1527 2.49686 13.7901 2.12957 14.4936 2.00911C15.197 1.88866 15.9204 2.02294 16.5338 2.38783C17.1471 2.75272 17.6103 3.32433 17.8401 4C17.8973 4.17184 18 4.32493 18.1374 4.44293C18.2748 4.56093 18.4416 4.63941 18.6201 4.67C19.0112 4.73479 19.3658 4.93819 19.6192 5.24301C19.8727 5.54783 20.0078 5.93368 20.0001 6.33C20.0001 6.54931 19.9569 6.76647 19.873 6.96908C19.7891 7.17169 19.6661 7.35579 19.511 7.51087C19.3559 7.66594 19.1718 7.78895 18.9692 7.87288C18.7666 7.9568 18.5494 8 18.3301 8ZM18.0001 12C17.7349 12 17.4805 12.1054 17.293 12.2929C17.1055 12.4804 17.0001 12.7348 17.0001 13V16C17.0001 16.2652 16.8948 16.5196 16.7072 16.7071C16.5197 16.8946 16.2653 17 16.0001 17H13.7401C13.5468 16.5051 13.2482 16.0582 12.8648 15.6904C12.4814 15.3226 12.0226 15.0426 11.5201 14.87C11.067 13.9083 10.3191 13.1161 9.38505 12.6084C8.45102 12.1006 7.37948 11.9038 6.32599 12.0465C5.27251 12.1892 4.29193 12.664 3.52662 13.4019C2.76131 14.1398 2.25112 15.1024 2.07012 16.15C1.3929 16.3726 0.817076 16.829 0.445817 17.4376C0.0745575 18.0461 -0.0678722 18.767 0.0440481 19.471C0.155968 20.175 0.514924 20.8162 1.0566 21.2796C1.59827 21.743 2.28726 21.9984 3.00012 22H10.3301C11.1863 22 12.0154 21.6998 12.6732 21.1517C13.3309 20.6036 13.7757 19.8422 13.9301 19H16.0001C16.7958 19 17.5588 18.6839 18.1214 18.1213C18.684 17.5587 19.0001 16.7956 19.0001 16V13C19.0001 12.7348 18.8948 12.4804 18.7072 12.2929C18.5197 12.1054 18.2653 12 18.0001 12ZM10.3301 20H3.00012C2.7349 20 2.48055 19.8946 2.29301 19.7071C2.10547 19.5196 2.00012 19.2652 2.00012 19C2.00012 18.7348 2.10547 18.4804 2.29301 18.2929C2.48055 18.1054 2.7349 18 3.00012 18C3.26533 18 3.51969 17.8946 3.70722 17.7071C3.89476 17.5196 4.00012 17.2652 4.00012 17C3.99205 16.2864 4.23866 15.5932 4.69567 15.045C5.15268 14.4969 5.79014 14.1296 6.49359 14.0091C7.19705 13.8887 7.9204 14.0229 8.53375 14.3878C9.14711 14.7527 9.61029 15.3243 9.84012 16C9.89728 16.1718 10 16.3249 10.1374 16.4429C10.2748 16.5609 10.4416 16.6394 10.6201 16.67C11.0112 16.7348 11.3658 16.9382 11.6192 17.243C11.8726 17.5478 12.0078 17.9337 12.0001 18.33C12.0001 18.5493 11.9569 18.7665 11.873 18.9691C11.7891 19.1717 11.6661 19.3558 11.511 19.5109C11.3559 19.6659 11.1718 19.789 10.9692 19.8729C10.7666 19.9568 10.5494 20 10.3301 20Z" fill="#757575"/>
</svg>
